<svg width="129" height="31" viewBox="0 0 129 31" fill="none" xmlns="http://www.w3.org/2000/svg">
<g clip-path="url(#clip0_0_77)">
<path d="M19.6041 8.80621C8.90985 10.606 -0.0414992 20.4408 -1.24861e-06 30.4112C-1.24861e-06 30.4408 -1.24861e-06 30.4704 -1.24861e-06 30.5L13.0255 25.0513C12.9913 24.7431 12.9693 24.425 12.9596 24.0971C12.7252 15.6726 21.1029 11.4344 27.0933 13.429C29.1779 14.1218 30.7304 15.5419 31.6678 17.2554L35.5125 15.6479C32.8566 10.4901 26.9004 7.58087 19.6017 8.80621H19.6041Z" fill="#005093"/>
<path d="M31.6703 17.253C25.5896 17.0754 19.1891 14.2352 19.3478 9.14645C19.4503 5.90187 22.4601 4.20316 26.1901 3.72978L24.8817 0.497534C18.1761 0.985699 12.6227 4.48422 12.4225 10.9142C12.1101 20.9413 24.618 27.8841 35.4978 26.6958L31.6703 17.253Z" fill="#008557"/>
<path d="M21.0077 13.3501C18.4348 14.0602 16.0426 15.6726 14.5462 18.0542C13.2085 16.0547 12.425 13.784 12.4152 11.321C14.5804 10.14 16.9263 9.28452 19.3649 8.84813C19.3551 8.94674 19.3502 9.04536 19.3478 9.14645C19.2965 10.786 19.9263 12.1913 21.0077 13.3501Z" fill="#002C2C"/>
<path d="M39.2107 15.855C39.2107 12.6474 41.6688 10.2115 44.9081 10.2115C46.9268 10.2115 48.6649 11.1607 49.6657 12.6622L47.8032 13.8309C47.1758 12.8989 46.1286 12.3146 44.9081 12.3146C42.9357 12.3146 41.4345 13.8309 41.4345 15.855C41.4345 17.8792 42.9357 19.3955 44.9081 19.3955C46.1286 19.3955 47.1783 18.8111 47.8032 17.8792L49.6657 19.0478C48.6649 20.5493 46.9268 21.4985 44.9081 21.4985C41.6688 21.4985 39.2107 19.0651 39.2107 15.855Z" fill="white"/>
<path d="M55.6902 13.1208V15.2387H55.346C53.8912 15.2387 53.0466 16.109 53.0466 17.4822V21.3087H51.0132V13.2465H53.0466V14.2894C53.6251 13.5473 54.4087 13.1208 55.346 13.1208H55.6902Z" fill="white"/>
<path d="M56.2077 17.2776C56.2077 14.8762 58.0556 13.0567 60.4967 13.0567C62.9377 13.0567 64.7856 14.8738 64.7856 17.2776C64.7856 19.6815 62.9377 21.4985 60.4967 21.4985C58.0556 21.4985 56.2077 19.6815 56.2077 17.2776ZM62.6863 17.2776C62.6863 16.0128 61.7636 15.0488 60.4942 15.0488C59.2249 15.0488 58.3022 16.0128 58.3022 17.2776C58.3022 18.5424 59.242 19.5064 60.4942 19.5064C61.7465 19.5064 62.6863 18.5424 62.6863 17.2776Z" fill="white"/>
<path d="M65.6302 20.2633L66.6164 18.9048C67.2267 19.4423 67.9932 19.8047 68.9476 19.8047C69.7605 19.8047 70.3561 19.536 70.3561 19.0454C70.3561 18.5079 69.6677 18.318 68.7914 18.1134C67.5245 17.8299 65.8816 17.4329 65.8816 15.6011C65.8816 13.895 67.3682 13.0567 69.138 13.0567C70.5001 13.0567 71.5156 13.5473 72.2357 14.1169L71.2495 15.4926C70.671 15.0488 69.9973 14.7505 69.1844 14.7505C68.496 14.7505 67.9321 14.9724 67.9321 15.4458C67.9321 15.9832 68.6059 16.1583 69.4968 16.3457C70.7637 16.6292 72.4066 17.0261 72.4066 18.858C72.4066 20.5641 70.9053 21.4985 68.994 21.4985C67.5074 21.4985 66.3967 20.929 65.6302 20.2658V20.2633Z" fill="white"/>
<path d="M73.1413 20.2633L74.1275 18.9048C74.7378 19.4423 75.5043 19.8047 76.4587 19.8047C77.2716 19.8047 77.8672 19.536 77.8672 19.0454C77.8672 18.5079 77.1788 18.318 76.3025 18.1134C75.0356 17.8299 73.3928 17.4329 73.3928 15.6011C73.3928 13.895 74.8794 13.0567 76.6491 13.0567C78.0112 13.0567 79.0267 13.5473 79.7468 14.1169L78.7606 15.4926C78.1821 15.0488 77.5084 14.7505 76.6955 14.7505C76.0071 14.7505 75.4432 14.9724 75.4432 15.4458C75.4432 15.9832 76.117 16.1583 77.008 16.3457C78.2749 16.6292 79.9177 17.0261 79.9177 18.858C79.9177 20.5641 78.4164 21.4985 76.5051 21.4985C75.0185 21.4985 73.9078 20.929 73.1413 20.2658V20.2633Z" fill="white"/>
<path d="M89.8723 18.3526C89.8723 20.0759 88.5737 21.3087 86.8356 21.3087H81.4043V10.4014H86.4744C88.0855 10.4014 89.3377 11.57 89.3377 13.1824C89.3377 14.2106 88.8056 15.1105 88.0855 15.5222C89.1351 15.9019 89.8699 17.0557 89.8699 18.3526H89.8723ZM83.5036 12.3614V14.7628H85.9447C86.5867 14.7628 87.1188 14.2401 87.1188 13.5621C87.1188 12.8841 86.6184 12.3614 85.9447 12.3614H83.5036ZM87.651 17.9729C87.651 17.2135 87.0724 16.6144 86.3059 16.6144H83.5036V19.3486H86.3059C87.0724 19.3486 87.651 18.747 87.651 17.9729Z" fill="white"/>
<path d="M95.8505 13.1208V15.2387H95.5063C94.0514 15.2387 93.2068 16.109 93.2068 17.4822V21.3087H91.1734V13.2465H93.2068V14.2894C93.7853 13.5473 94.5689 13.1208 95.5063 13.1208H95.8505Z" fill="white"/>
<path d="M96.7756 10.7811C96.7756 10.0537 97.3395 9.50148 98.0596 9.50148C98.7797 9.50148 99.3436 10.0537 99.3436 10.7811C99.3436 11.5084 98.7797 12.0606 98.0596 12.0606C97.3395 12.0606 96.7756 11.5084 96.7756 10.7811ZM97.0417 13.2465H99.0751V21.3087H97.0417V13.2465Z" fill="white"/>
<path d="M109.091 9.92801V21.3087H107.057V20.3447C106.415 21.0547 105.524 21.4985 104.46 21.4985C102.239 21.4985 100.564 19.6815 100.564 17.2776C100.564 14.8738 102.239 13.0567 104.46 13.0567C105.524 13.0567 106.415 13.5005 107.057 14.2105V9.92801H109.091ZM107.057 17.2776C107.057 16.0128 106.118 15.0488 104.851 15.0488C103.584 15.0488 102.659 16.0128 102.659 17.2776C102.659 18.5424 103.598 19.5064 104.851 19.5064C106.103 19.5064 107.057 18.5424 107.057 17.2776Z" fill="white"/>
<path d="M119.109 13.2465V20.4384C119.109 22.8891 117.388 24.5015 114.742 24.5015C113.209 24.5015 111.925 23.9492 111.08 23.0321L112.113 21.6243C112.677 22.2406 113.553 22.6203 114.571 22.6203C116.104 22.6203 117.075 21.75 117.075 20.4236V19.997C116.433 20.6923 115.542 21.104 114.478 21.104C112.257 21.104 110.582 19.3659 110.582 17.073C110.582 14.7801 112.257 13.0592 114.478 13.0592C115.542 13.0592 116.433 13.4709 117.075 14.1662V13.249H119.109V13.2465ZM117.075 17.0705C117.075 15.8526 116.136 14.9206 114.869 14.9206C113.602 14.9206 112.677 15.8526 112.677 17.0705C112.677 18.2885 113.616 19.2352 114.869 19.2352C116.121 19.2352 117.075 18.3033 117.075 17.0705Z" fill="white"/>
<path d="M128.954 18.0197H122.773C123.054 19.0306 123.901 19.679 125.058 19.679C126.027 19.679 126.825 19.2204 127.25 18.6829L128.612 19.8836C127.782 20.8797 126.498 21.4961 124.997 21.4961C122.46 21.4961 120.569 19.6617 120.569 17.2431C120.569 14.8245 122.399 13.0542 124.809 13.0542C127.218 13.0542 129.002 14.8565 129.002 17.2899C129.002 17.5118 128.988 17.7954 128.956 18.0173L128.954 18.0197ZM122.756 16.5182H126.825C126.574 15.5074 125.775 14.859 124.792 14.859C123.808 14.859 123.007 15.5222 122.758 16.5182H122.756Z" fill="white"/>
</g>
<defs>
<clipPath id="clip0_0_77">
<rect width="129" height="30" fill="white" transform="translate(0 0.5)"/>
</clipPath>
</defs>
</svg>
